<svg width="65" height="30" viewBox="0 0 65 30" fill="none" xmlns="http://www.w3.org/2000/svg">
<g clip-path="url(#clip0_108_13)">
<mask id="mask0_108_13" style="mask-type:luminance" maskUnits="userSpaceOnUse" x="0" y="0" width="65" height="30">
<path d="M0 0H65V30H0V0Z" fill="white"/>
</mask>
<g mask="url(#mask0_108_13)">
<mask id="mask1_108_13" style="mask-type:luminance" maskUnits="userSpaceOnUse" x="1" y="0" width="64" height="33">
<path d="M1.46094 0H65.0003V32.1951H1.46094V0Z" fill="white"/>
</mask>
<g mask="url(#mask1_108_13)">
<mask id="mask2_108_13" style="mask-type:luminance" maskUnits="userSpaceOnUse" x="1" y="2" width="63" height="26">
<path d="M1.34863 2.12207H63.9137V27.6755H1.34863V2.12207Z" fill="white"/>
</mask>
<g mask="url(#mask2_108_13)">
<path d="M13.5453 27.4032L8.14077 21.2174L12.7806 16.1042H9.42105L5.73942 20.0891V12.5752H1.34863C1.80342 12.908 2.17748 13.3392 2.44301 13.8368C2.70853 14.3344 2.8587 14.8856 2.88234 15.4493V27.4032H5.73942V22.6215L9.98122 27.4032H13.5453Z" fill="#231F20"/>
<path d="M50.5531 16.1045V27.4028H47.6939V18.9786C47.6702 18.4149 47.52 17.8638 47.2545 17.3662C46.9889 16.8686 46.6149 16.4373 46.1602 16.1045H50.5531Z" fill="#231F20"/>
<path d="M62.5468 25.0255L63.914 27.4064H52.6807L58.4503 18.4891H53.0604V16.1045H63.6657L57.4074 25.0255H62.5468Z" fill="#231F20"/>
<path d="M18.9451 24.1442V18.4859H20.9506L22.3185 16.1042H18.9451V12.5752L16.0895 14.2062V16.102H13.9854V18.4837H16.0895V24.2971C16.0903 24.7056 16.1715 25.1099 16.3283 25.4869C16.4851 25.8639 16.7146 26.2062 17.0035 26.4944C17.2924 26.7826 17.6351 27.0109 18.0121 27.1663C18.3891 27.3218 18.793 27.4013 19.2007 27.4003H21.4647V25.0223H19.8244C19.592 25.0223 19.369 24.9298 19.2047 24.7651C19.0403 24.6004 18.948 24.3771 18.948 24.1442" fill="#231F20"/>
<path d="M41.8115 16.104L38.9778 22.0557L35.6847 15.8076L32.3901 22.0564L29.5571 16.104H25.1123C26.331 16.7692 27.323 17.7848 27.9606 19.0198C28.6508 20.4166 32.2528 27.6752 32.2528 27.6752L35.6854 21.1337L39.118 27.6752L44.8818 16.104H41.8115Z" fill="#231F20"/>
<path d="M48.8714 12.5855C48.4785 9.55036 46.3225 6.09744 43.2529 3.58548C46.5621 4.74744 49.4272 4.18768 50.7206 2.12207C51.1135 5.15719 53.2695 8.61012 56.3384 11.1221C53.0307 9.95939 50.1648 10.5206 48.8714 12.5855Z" fill="#EC1C24"/>
</g>
</g>
</g>
</g>
<defs>
<clipPath id="clip0_108_13">
<rect width="65" height="30" fill="white"/>
</clipPath>
</defs>
</svg>
